HIERARCHY
ROOT hip
{
	OFFSET 0.000000 0.000000 0.000000
	CHANNELS 6 Xposition Yposition Zposition Zrotation Yrotation Xrotation 
	JOINT lhipjoint
	{
		OFFSET 0.000000 0.000000 0.000000
		CHANNELS 3 Zrotation Yrotation Xrotation
		JOINT lfemur
		{
			OFFSET 1.363060 -1.794630 0.839290
			CHANNELS 3 Zrotation Yrotation Xrotation
			JOINT ltibia
			{
				OFFSET 2.448110 -6.726130 0.000000
				CHANNELS 3 Zrotation Yrotation Xrotation
				JOINT lfoot
				{
					OFFSET 2.562200 -7.039590 0.000000
					CHANNELS 3 Zrotation Yrotation Xrotation
					JOINT ltoes
					{
						OFFSET 0.157640 -0.433110 2.322550
						CHANNELS 3 Zrotation Yrotation Xrotation
						End Site
						{
							OFFSET 0.000000 0.000000 0.000000
						}
					}
				}
			}
		}
	}
	JOINT rhipjoint
	{
		OFFSET 0.000000 0.000000 0.000000
		CHANNELS 3 Zrotation Yrotation Xrotation
		JOINT rfemur
		{
			OFFSET -1.305520 -1.794630 0.839290
			CHANNELS 3 Zrotation Yrotation Xrotation
			JOINT rtibia
			{
				OFFSET -2.542530 -6.985550 0.000000
				CHANNELS 3 Zrotation Yrotation Xrotation
				JOINT rfoot
				{
					OFFSET -2.568260 -7.056230 0.000000
					CHANNELS 3 Zrotation Yrotation Xrotation
					JOINT rtoes
					{
						OFFSET -0.164730 -0.452590 2.363150
						CHANNELS 3 Zrotation Yrotation Xrotation
						End Site
						{
							OFFSET 0.000000 0.000000 0.000000
						}
					}
				}
			}
		}
	}
	JOINT lowerback
	{
		OFFSET 0.000000 0.000000 0.000000
		CHANNELS 3 Zrotation Yrotation Xrotation
		JOINT upperback
		{
			OFFSET 0.028270 2.035590 -0.193380
			CHANNELS 3 Zrotation Yrotation Xrotation
			JOINT thorax
			{
				OFFSET 0.056720 2.048850 -0.042750
				CHANNELS 3 Zrotation Yrotation Xrotation
				JOINT lowerneck
				{
					OFFSET 0.000000 0.000000 0.000000
					CHANNELS 3 Zrotation Yrotation Xrotation
					JOINT upperneck
					{
						OFFSET -0.054170 1.746240 0.172020
						CHANNELS 3 Zrotation Yrotation Xrotation
						JOINT head
						{
							OFFSET 0.104070 1.761360 -0.123970
							CHANNELS 3 Zrotation Yrotation Xrotation
							End Site
							{
								OFFSET 0.000000 0.000000 0.000000
							}
						}
					}
				}
				JOINT lclavicle
				{
					OFFSET 0.000000 0.000000 0.000000
					CHANNELS 3 Zrotation Yrotation Xrotation
					JOINT lhumerus
					{
						OFFSET 3.362410 1.200890 -0.311210
						CHANNELS 3 Zrotation Yrotation Xrotation
						JOINT lradius
						{
							OFFSET 4.983000 -0.000000 -0.000000
							CHANNELS 3 Zrotation Yrotation Xrotation
							JOINT lwrist
							{
								OFFSET 3.483560 -0.000000 -0.000000
								CHANNELS 3 Zrotation Yrotation Xrotation
								JOINT lhand
								{
									OFFSET 0.000000 0.000000 0.000000
									CHANNELS 3 Zrotation Yrotation Xrotation
									JOINT lfingers
									{
										OFFSET 0.715260 -0.000000 -0.000000
										CHANNELS 3 Zrotation Yrotation Xrotation
										End Site
										{
											OFFSET 0.000000 0.000000 0.000000
										}
									}
								}
								JOINT lthumb
								{
									OFFSET 0.000000 0.000000 0.000000
									CHANNELS 3 Zrotation Yrotation Xrotation
									End Site
									{
										OFFSET 0.000000 0.000000 0.000000
									}
								}
							}
						}
					}
				}
				JOINT rclavicle
				{
					OFFSET 0.000000 0.000000 0.000000
					CHANNELS 3 Zrotation Yrotation Xrotation
					JOINT rhumerus
					{
						OFFSET -3.136600 1.374050 -0.404650
						CHANNELS 3 Zrotation Yrotation Xrotation
						JOINT rradius
						{
							OFFSET -5.241900 -0.000000 -0.000000
							CHANNELS 3 Zrotation Yrotation Xrotation
							JOINT rwrist
							{
								OFFSET -3.444170 -0.000000 -0.000000
								CHANNELS 3 Zrotation Yrotation Xrotation
								JOINT rhand
								{
									OFFSET 0.000000 0.000000 0.000000
									CHANNELS 3 Zrotation Yrotation Xrotation
									JOINT rfingers
									{
										OFFSET -0.622530 -0.000000 -0.000000
										CHANNELS 3 Zrotation Yrotation Xrotation
										End Site
										{
											OFFSET 0.000000 0.000000 0.000000
										}
									}
								}
								JOINT rthumb
								{
									OFFSET 0.000000 0.000000 0.000000
									CHANNELS 3 Zrotation Yrotation Xrotation
									End Site
									{
										OFFSET 0.000000 0.000000 0.000000
									}
								}
							}
						}
					}
				}
			}
		}
	}
}
MOTION
Frames: 7
Frame Time: 0.008333
-0.395667 13.813578 2.114134 -175.805661 -6.111792 167.489698 -4.873842 -2.891805 -0.963609 -12.874263 -4.003881 -13.918868 13.070951 19.334295 68.151242 2.611253 -13.725943 -27.884014 0.051300 -1.461000 -4.018100 2.811130 3.211392 -1.992720 23.826718 -6.077927 -16.769520 -13.608769 -19.557113 68.159075 -2.226822 4.950918 -27.016083 -0.046600 -1.392800 3.830200 4.566833 -2.905635 27.161519 2.064245 -3.497991 -3.854666 -0.606546 -2.544428 -1.193299 -7.273990 -4.978101 -13.646227 11.326982 -5.292421 -7.058831 3.120100 -2.175600 -2.068200 -3.716661 -6.173924 2.297545 -84.331413 -0.330027 19.625190 6.043551 -17.742396 -2.113606 -0.343244 1.673981 -20.905125 27.326646 -9.565867 -5.810900 -7.125000 0.000000 0.000000 -0.051800 17.128300 0.034300 6.905364 4.917724 3.269739 73.474435 -9.747278 33.044358 -24.411506 41.690316 -8.007979 1.266042 -3.101033 -58.381267 -28.797869 4.512302 -3.906600 7.125000 0.000000 0.000000 -0.042000 -21.314900 -0.023900 
-0.396294 13.754546 2.111357 -175.819875 -5.895578 167.232245 -4.877267 -2.895323 -0.960023 -12.802242 -3.809745 -14.071464 13.354592 19.440374 69.042540 2.672705 -13.922290 -28.206267 0.049700 -1.438800 -3.957000 2.820591 3.213792 -1.987497 23.686551 -6.267302 -16.932806 -13.873574 -19.664536 69.006662 -2.301485 5.365457 -27.240685 -0.051600 -1.465500 4.030600 4.583948 -2.843314 27.499344 2.049172 -3.415673 -3.854521 -0.705789 -2.507665 -1.357924 -7.297692 -4.939003 -13.287422 11.400854 -5.263725 -7.305655 3.186700 -2.168300 -2.242100 -3.836924 -6.173503 2.351931 -83.028446 -0.478046 17.636311 5.974673 -17.455290 -2.105117 -0.379465 1.644600 -20.662967 27.370232 -9.353549 -5.718500 -7.125000 0.000000 0.000000 0.030500 17.376600 -0.020000 6.964055 4.880508 3.296244 72.953723 -9.433923 30.558841 -24.053025 41.276200 -8.021797 1.239435 -3.072717 -58.344003 -29.261009 4.540870 -3.987400 7.125000 0.000000 0.000000 -0.385800 -21.277500 -0.219500 
-0.396025 13.706980 2.107326 -175.887215 -5.769000 167.060537 -4.881407 -2.893844 -0.953481 -12.802342 -3.683622 -14.202482 13.557131 19.509362 69.670882 2.714563 -14.148160 -28.411234 0.042800 -1.335500 -3.672500 2.833203 3.217980 -1.979614 23.468242 -6.486751 -17.116317 -14.083357 -19.745747 69.678964 -2.367424 5.857086 -27.350236 -0.064100 -1.633200 4.492900 4.498376 -2.793717 27.714401 2.038295 -3.361254 -3.867505 -0.723476 -2.482534 -1.519671 -7.353404 -4.892474 -12.879342 11.471692 -5.233849 -7.553224 3.261400 -2.162100 -2.434500 -3.971165 -6.172937 2.412512 -81.584886 -0.687126 15.467713 5.807250 -17.029767 -2.078428 -0.429381 1.607884 -20.518527 27.545060 -8.944075 -5.558900 -7.125000 0.000000 0.000000 0.227700 17.832300 -0.147000 7.049907 4.831242 3.322645 72.203902 -9.158586 28.024376 -23.745884 40.864156 -8.078439 1.211923 -3.029659 -58.552735 -30.088665 4.535025 -4.109700 7.125000 0.000000 0.000000 -0.996000 -21.257500 -0.567200 
-0.394681 13.674643 2.100876 -175.962735 -5.685171 166.941557 -4.884705 -2.897247 -0.945919 -12.802068 -3.520472 -14.266260 13.663704 19.548043 70.001834 2.732294 -14.373802 -28.483025 0.040400 -1.297700 -3.568200 2.845860 3.230041 -1.976574 23.242323 -6.752267 -17.256464 -14.219838 -19.801309 70.122598 -2.419081 6.316286 -27.388145 -0.081200 -1.838200 5.058600 4.361331 -2.754543 27.817716 2.030006 -3.329434 -3.883679 -0.700485 -2.468094 -1.638012 -7.368325 -4.844643 -12.492443 11.491960 -5.206929 -7.777407 3.303600 -2.160300 -2.624900 -4.122166 -6.161748 2.479343 -79.982269 -0.933281 13.143727 5.585009 -16.510966 -2.044255 -0.496507 1.563165 -20.478058 27.919638 -8.312899 -5.329700 -7.125000 0.000000 0.000000 0.592900 18.516100 -0.374000 7.169855 4.771666 3.349260 71.205620 -8.918119 25.528264 -23.575542 40.532233 -8.209228 1.187326 -2.970512 -59.109126 -31.280508 4.504033 -4.277800 7.125000 0.000000 0.000000 -1.871500 -21.243100 -1.066800 
-0.393159 13.660758 2.093979 -176.077301 -5.628809 166.958858 -4.887755 -2.897470 -0.935875 -12.837372 -3.366772 -14.350415 13.671993 19.547734 70.024754 2.717356 -14.606062 -28.369671 0.037700 -1.252500 -3.443900 2.862375 3.238757 -1.968364 22.980454 -7.004892 -17.421963 -14.276518 -19.823045 70.317057 -2.453707 6.797873 -27.304709 -0.096500 -2.002900 5.513500 4.175652 -2.720326 27.742876 2.017833 -3.310169 -3.911522 -0.670045 -2.452983 -1.716449 -7.404754 -4.817780 -12.203696 11.540125 -5.201176 -7.926267 3.357100 -2.165100 -2.760800 -4.293189 -6.142270 2.547174 -78.213789 -1.224037 10.603510 5.317760 -15.899744 -2.004361 -0.579911 1.508940 -20.403367 28.493835 -7.403331 -4.985200 -7.125000 0.000000 0.000000 1.135500 19.499900 -0.691500 7.304838 4.710102 3.367802 70.047820 -8.714757 22.924409 -23.448136 40.207240 -8.361909 1.160382 -2.898406 -59.834182 -32.589042 4.473951 -4.461300 7.125000 0.000000 0.000000 -2.833900 -21.228100 -1.617500 
-0.391636 13.667835 2.086365 -176.226793 -5.593790 167.072637 -4.889768 -2.898814 -0.924680 -12.903407 -3.190369 -14.408394 13.576298 19.512003 69.725262 2.665428 -14.782316 -28.051554 0.033700 -1.184800 -3.257400 2.880820 3.252673 -1.962934 22.699567 -7.288557 -17.566472 -14.236641 -19.811419 70.214915 -2.453918 7.133768 -27.090273 -0.102000 -2.059600 5.670300 3.938664 -2.680472 27.528221 2.004857 -3.292358 -3.941872 -0.614916 -2.438264 -1.724162 -7.409006 -4.814351 -12.098825 11.546882 -5.208263 -8.000548 3.372700 -2.172700 -2.824700 -4.478102 -6.105061 2.613283 -76.293436 -1.557145 7.920135 5.064966 -15.274003 -1.976604 -0.678968 1.446516 -20.392670 29.366179 -6.291162 -4.561000 -7.125000 0.000000 0.000000 1.922400 20.695200 -1.119600 7.460027 4.644360 3.377710 68.684955 -8.465516 20.260495 -23.322949 39.851456 -8.508248 1.133995 -2.809902 -60.710810 -33.919891 4.383788 -4.604400 7.125000 0.000000 0.000000 -3.825100 -21.295300 -2.179500 
-0.389844 13.696948 2.078840 -176.433745 -5.585735 167.277822 -4.889919 -2.901548 -0.908763 -13.023341 -2.970511 -14.449159 13.378446 19.437608 69.104989 2.572051 -14.881650 -27.494877 0.026600 -1.052000 -2.891800 2.903814 3.271607 -1.957170 22.364451 -7.571860 -17.665723 -14.100172 -19.767222 69.815496 -2.435508 7.540530 -26.714423 -0.113200 -2.169000 5.973000 3.642152 -2.644784 27.218997 1.983805 -3.283932 -3.990220 -0.562393 -2.421911 -1.754440 -7.419607 -4.833810 -12.062512 11.557923 -5.248276 -7.991678 3.384700 -2.197000 -2.830700 -4.687736 -6.073195 2.678806 -74.162242 -1.737080 5.758606 4.912275 -14.784051 -1.979360 -0.807979 1.367363 -21.002493 30.594027 -4.937771 -4.009000 -7.125000 0.000000 0.000000 3.007300 22.154600 -1.653400 7.632658 4.592222 3.375546 67.156607 -8.293647 17.652427 -23.247064 39.512819 -8.659278 1.111680 -2.708579 -61.772653 -35.183556 4.285981 -4.719600 7.125000 0.000000 0.000000 -4.775700 -21.391100 -2.714100 
